<?xml version="1.0" encoding="utf-8"?>
<!-- Generator: Adobe Illustrator 24.1.2, SVG Export Plug-In . SVG Version: 6.00 Build 0)  -->
<svg version="1.1" id="Layer_1" xmlns="http://www.w3.org/2000/svg" xmlns:xlink="http://www.w3.org/1999/xlink" x="0px" y="0px"
	 viewBox="0 0 24 24" style="enable-background:new 0 0 24 24;" xml:space="preserve">
<style type="text/css">
	.st0{fill:#FFFFFF;}
</style>
<g>
	<path class="st0" d="M8.33,17.08c0.92,0.58,2.01,0.92,3.18,0.92c3.31,0,6-2.69,6-6c0-1.17-0.34-2.26-0.92-3.18L8.33,17.08z"/>
	<path class="st0" d="M11.51,6.01c-3.31,0-6,2.69-6,6c0,1.42,0.5,2.72,1.32,3.75l8.43-8.43C14.23,6.5,12.93,6.01,11.51,6.01z"/>
	<path class="st0" d="M0,0v24h24V0H0z M11.51,20.01c-4.42,0-8-3.58-8-8s3.58-8,8-8c4.42,0,8,3.58,8,8S15.93,20.01,11.51,20.01z"/>
</g>
</svg>
