<?xml version="1.0" encoding="utf-8"?>
<!-- Generator: Adobe Illustrator 24.1.2, SVG Export Plug-In . SVG Version: 6.00 Build 0)  -->
<svg version="1.1" id="Layer_1" xmlns="http://www.w3.org/2000/svg" xmlns:xlink="http://www.w3.org/1999/xlink" x="0px" y="0px"
	 viewBox="0 0 24 24" style="enable-background:new 0 0 24 24;" xml:space="preserve">
<style type="text/css">
	.st0{fill:#FFFFFF;}
</style>
<path class="st0" d="M0,0v5h0v14h0v5h24v-5v-0.4V5.33V5V0H0z M2.19,18.02l6.26-6.26l6.35,6.26H2.19z M12.72,14.56l3.97-3.97
	l6.23,6.23c0.03,0.03,0.07,0.05,0.1,0.07v1.13h-6.79L12.72,14.56z M23.02,15.51l-5.98-5.98c-0.2-0.2-0.51-0.2-0.71,0L12,13.86
	L8.8,10.7c-0.2-0.19-0.51-0.19-0.7,0l-7.06,7.06C1.01,17.79,1,17.82,0.98,17.85V5.98h22.04V15.51z"/>
</svg>
