<?xml version="1.0" encoding="utf-8"?>
<!-- Generator: Adobe Illustrator 24.1.2, SVG Export Plug-In . SVG Version: 6.00 Build 0)  -->
<svg version="1.1" id="Layer_1" xmlns="http://www.w3.org/2000/svg" xmlns:xlink="http://www.w3.org/1999/xlink" x="0px" y="0px"
	 viewBox="0 0 24 24" style="enable-background:new 0 0 24 24;" xml:space="preserve">
<style type="text/css">
	.st0{fill:#FFFFFF;}
</style>
<path class="st0" d="M0,0v24h24V0H0z M18.95,20.76l-6.58-6.51l3.98-3.98l2.59,2.59V20.76z M18.95,1.05v10.4l-2.24-2.24
	c-0.2-0.2-0.51-0.2-0.71,0l-4.34,4.34l-3.2-3.16c-0.19-0.19-0.51-0.19-0.71,0L5.05,13.1V1.05H18.95z M5.05,22.95v-8.43l3.07-3.07
	l3.1,3.07c0.02,0.04,0.04,0.08,0.07,0.11c0.03,0.03,0.08,0.05,0.12,0.08l7.54,7.46v0.79H5.05z"/>
</svg>
