<?xml version="1.0" encoding="utf-8"?>
<!-- Generator: Adobe Illustrator 24.1.2, SVG Export Plug-In . SVG Version: 6.00 Build 0)  -->
<svg version="1.1" id="Layer_1" xmlns="http://www.w3.org/2000/svg" xmlns:xlink="http://www.w3.org/1999/xlink" x="0px" y="0px"
	 viewBox="0 0 24 24" style="enable-background:new 0 0 24 24;" xml:space="preserve">
<style type="text/css">
	.st0{fill:#FFFFFF;}
</style>
<path class="st0" d="M0.03,0v24H24V0H0.03z M22,2v13.08l-5.87-5.87c-0.2-0.2-0.51-0.2-0.71,0l-4.33,4.34L7.9,10.39
	c-0.19-0.19-0.51-0.19-0.7,0l-5.17,5.18V2H22z M2.03,16.98l5.53-5.53l3.1,3.08c0.02,0.04,0.04,0.07,0.07,0.1
	c0.03,0.03,0.07,0.05,0.11,0.07L18.2,22H2.03V16.98z M19.62,22l-7.81-7.75l3.98-3.98L22,16.5V22H19.62z"/>
</svg>
